<svg width="20" height="20" viewBox="0 0 60 60" fill="none" xmlns="http://www.w3.org/2000/svg">
<path d="M11.6149 12.8694H48.0199V50.0001C48.0199 52.7615 45.7814 55.0001 43.0199 55.0001H16.6149C13.8534 55.0001 11.6149 52.7615 11.6149 50.0001V12.8694Z" stroke="#7E0101" stroke-width="10"/>
<path d="M17.0962 20.635L17.0962 47.2434" stroke="#7E0101" stroke-width="5" stroke-linecap="round"/>
<path d="M30 20.635L30 47.2434" stroke="#7E0101" stroke-width="5" stroke-linecap="round"/>
<path d="M42.6573 20.635V47.2434" stroke="#7E0101" stroke-width="5" stroke-linecap="round"/>
<mask id="path-5-inside-1_61_28" fill="white">
<path d="M0 16.8247C0 11.8788 4.00945 7.86938 8.95536 7.86938H51.0446C55.9906 7.86938 60 11.8788 60 16.8247V16.8247H0V16.8247Z"/>
</mask>
<path d="M8.95536 17.8694H51.0446V-2.13062H8.95536V17.8694ZM60 6.82475H0V26.8247H60V6.82475ZM51.0446 17.8694C50.4677 17.8694 50 17.4017 50 16.8247H70C70 6.356 61.5134 -2.13062 51.0446 -2.13062V17.8694ZM8.95536 -2.13062C-1.5134 -2.13062 -10 6.356 -10 16.8247H10C10 17.4017 9.5323 17.8694 8.95536 17.8694V-2.13062Z" fill="#7E0101" mask="url(#path-5-inside-1_61_28)"/>
<path d="M32.1696 4.86931H26.7753C27.1844 3.77731 28.2376 3 29.4725 3C30.7073 3 31.7605 3.77731 32.1696 4.86931Z" stroke="#7E0101" stroke-width="3.93466"/>
</svg>
